<?xml version="1.0" encoding="utf-8"?><!-- Uploaded to: SVG Repo, www.svgrepo.com, Generator: SVG Repo Mixer Tools -->
<svg width="800px" height="800px" viewBox="0 0 24 24" id="Flat_Color" data-name="Flat Color" xmlns="http://www.w3.org/2000/svg"><path id="secondary" d="M22,15v3a2,2,0,0,1-2,2H19a1,1,0,0,1-1-1V15a1,1,0,0,1,1-1h2A1,1,0,0,1,22,15ZM5,14H3a1,1,0,0,0-1,1v3a2,2,0,0,0,2,2H5a1,1,0,0,0,1-1V15A1,1,0,0,0,5,14Z" style="fill:#2ca9bc"></path><path id="primary" d="M19,8H5A1,1,0,0,0,4,9V20a2,2,0,0,0,2,2H18a2,2,0,0,0,2-2V9A1,1,0,0,0,19,8Z" style="fill:#000000"></path><path id="secondary-2" data-name="secondary" d="M19,2H5A2,2,0,0,0,3,4V7a3,3,0,0,0,3,3H18a3,3,0,0,0,3-3V4A2,2,0,0,0,19,2Z" style="fill:#2ca9bc"></path><path id="primary-2" data-name="primary" d="M15,11a1,1,0,0,1-1-1V8a1,1,0,0,1,2,0v2A1,1,0,0,1,15,11Zm-5-1V8A1,1,0,0,0,8,8v2a1,1,0,0,0,2,0Z" style="fill:#000000"></path><path id="secondary-3" data-name="secondary" d="M14,14H10a2,2,0,0,0-2,2v5a1,1,0,0,0,1,1h6a1,1,0,0,0,1-1V16A2,2,0,0,0,14,14Z" style="fill:#2ca9bc"></path></svg>